<svg xmlns="http://www.w3.org/2000/svg" xmlns:xlink="http://www.w3.org/1999/xlink" width="500" zoomAndPan="magnify" viewBox="0 0 375 374.999991" height="500" preserveAspectRatio="xMidYMid meet" version="1.0"><defs><clipPath id="7fa12dd685"><path d="M 16 10 L 344 10 L 344 179 L 16 179 Z M 16 10 " clip-rule="nonzero"/></clipPath><clipPath id="169be1d85b"><path d="M 287.621094 -45.695312 L 423.234375 281.296875 L 87.234375 420.644531 L -48.378906 93.648438 Z M 287.621094 -45.695312 " clip-rule="nonzero"/></clipPath><clipPath id="8bba2ef631"><path d="M 287.621094 -45.695312 L 423.234375 281.296875 L 87.234375 420.644531 L -48.378906 93.648438 Z M 287.621094 -45.695312 " clip-rule="nonzero"/></clipPath><clipPath id="2acb4656d3"><path d="M 5 161 L 183 161 L 183 349 L 5 349 Z M 5 161 " clip-rule="nonzero"/></clipPath><clipPath id="d318bda7ee"><path d="M 287.621094 -45.695312 L 423.234375 281.296875 L 87.234375 420.644531 L -48.378906 93.648438 Z M 287.621094 -45.695312 " clip-rule="nonzero"/></clipPath><clipPath id="e53e3297e7"><path d="M 287.621094 -45.695312 L 423.234375 281.296875 L 87.234375 420.644531 L -48.378906 93.648438 Z M 287.621094 -45.695312 " clip-rule="nonzero"/></clipPath><clipPath id="db1f7f93cd"><path d="M 193 117 L 371 117 L 371 349 L 193 349 Z M 193 117 " clip-rule="nonzero"/></clipPath><clipPath id="c81922c2bf"><path d="M 287.621094 -45.695312 L 423.234375 281.296875 L 87.234375 420.644531 L -48.378906 93.648438 Z M 287.621094 -45.695312 " clip-rule="nonzero"/></clipPath><clipPath id="1781a0bbc7"><path d="M 287.621094 -45.695312 L 423.234375 281.296875 L 87.234375 420.644531 L -48.378906 93.648438 Z M 287.621094 -45.695312 " clip-rule="nonzero"/></clipPath><clipPath id="f9dc725ba3"><path d="M 123 195 L 249 195 L 249 356 L 123 356 Z M 123 195 " clip-rule="nonzero"/></clipPath><clipPath id="d895179f05"><path d="M 287.621094 -45.695312 L 423.234375 281.296875 L 87.234375 420.644531 L -48.378906 93.648438 Z M 287.621094 -45.695312 " clip-rule="nonzero"/></clipPath><clipPath id="ed42b7b028"><path d="M 287.621094 -45.695312 L 423.234375 281.296875 L 87.234375 420.644531 L -48.378906 93.648438 Z M 287.621094 -45.695312 " clip-rule="nonzero"/></clipPath><clipPath id="9bb906410a"><path d="M 0 0.234375 L 375 0.234375 L 375 374.484375 L 0 374.484375 Z M 0 0.234375 " clip-rule="nonzero"/></clipPath></defs><g clip-path="url(#7fa12dd685)"><g clip-path="url(#169be1d85b)"><g clip-path="url(#8bba2ef631)"><path fill="#3366ff" d="M 185.667969 178.484375 L 343.710938 112.941406 C 325.058594 71.164062 291.648438 40.3125 252.230469 24.003906 C 211.460938 7.136719 164.25 5.820312 120.273438 24.058594 C 76.296875 42.296875 43.875 76.636719 27.007812 117.40625 C 21.902344 129.753906 18.222656 142.691406 16.078125 155.953125 C 18.378906 156.039062 20.117188 156.152344 20.722656 156.230469 Z M 185.667969 178.484375 " fill-opacity="1" fill-rule="evenodd"/></g></g></g><g clip-path="url(#2acb4656d3)"><g clip-path="url(#d318bda7ee)"><g clip-path="url(#e53e3297e7)"><path fill="#172d6c" d="M 114.742188 348.90625 C 113.730469 348.511719 112.722656 348.105469 111.722656 347.691406 C 70.949219 330.824219 36.609375 298.402344 18.371094 254.425781 C 5.660156 223.769531 2.449219 191.539062 7.386719 161.015625 C 9.6875 161.105469 11.425781 161.214844 12.03125 161.292969 L 178.25 183.71875 L 177.628906 188.378906 L 178.261719 183.707031 C 180.839844 184.054688 182.648438 186.429688 182.300781 189.011719 C 182.226562 189.570312 182.054688 190.089844 181.808594 190.5625 Z M 114.742188 348.90625 " fill-opacity="1" fill-rule="nonzero"/></g></g></g><g clip-path="url(#db1f7f93cd)"><g clip-path="url(#c81922c2bf)"><g clip-path="url(#1781a0bbc7)"><path fill="#515f7b" d="M 357.089844 121.828125 C 375.328125 165.804688 374.015625 213.011719 357.148438 253.785156 C 340.28125 294.554688 307.859375 328.894531 263.882812 347.132812 C 262.78125 347.589844 261.675781 348.027344 260.570312 348.460938 C 259.070312 346.675781 257.984375 345.21875 257.71875 344.582031 L 193.480469 189.679688 C 192.484375 187.277344 193.625 184.515625 196.027344 183.519531 L 355.226562 117.496094 C 355.867188 118.929688 356.488281 120.371094 357.089844 121.828125 Z M 357.089844 121.828125 " fill-opacity="1" fill-rule="nonzero"/></g></g></g><g clip-path="url(#f9dc725ba3)"><g clip-path="url(#d895179f05)"><g clip-path="url(#ed42b7b028)"><path fill="#1c367e" d="M 123.433594 343.84375 C 162.261719 359.050781 206.625 360.296875 248.367188 344.171875 C 249.832031 343.605469 191.640625 208.453125 186.265625 195.496094 Z M 123.433594 343.84375 " fill-opacity="1" fill-rule="evenodd"/></g></g></g><g clip-path="url(#9bb906410a)"><path fill="#040f16" d="M 187.5 24.613281 C 97.679688 24.613281 24.613281 97.679688 24.613281 187.5 C 24.613281 277.320312 97.679688 350.394531 187.5 350.394531 C 277.320312 350.394531 350.386719 277.320312 350.386719 187.5 C 350.386719 97.679688 277.320312 24.613281 187.5 24.613281 Z M 187.5 374.796875 C 162.222656 374.796875 137.691406 369.847656 114.589844 360.078125 C 92.285156 350.636719 72.257812 337.132812 55.058594 319.941406 C 37.867188 302.742188 24.363281 282.714844 14.921875 260.410156 C 5.160156 237.308594 0.203125 212.777344 0.203125 187.5 C 0.203125 162.222656 5.160156 137.691406 14.921875 114.589844 C 24.363281 92.285156 37.867188 72.257812 55.058594 55.058594 C 72.257812 37.867188 92.285156 24.363281 114.589844 14.929688 C 137.691406 5.160156 162.222656 0.203125 187.5 0.203125 C 212.777344 0.203125 237.308594 5.160156 260.410156 14.929688 C 282.714844 24.363281 302.742188 37.867188 319.941406 55.058594 C 337.132812 72.257812 350.636719 92.285156 360.078125 114.589844 C 369.839844 137.691406 374.796875 162.222656 374.796875 187.5 C 374.796875 212.777344 369.839844 237.308594 360.078125 260.410156 C 350.636719 282.710938 337.132812 302.742188 319.941406 319.941406 C 302.742188 337.132812 282.714844 350.636719 260.410156 360.078125 C 237.308594 369.847656 212.777344 374.796875 187.5 374.796875 " fill-opacity="1" fill-rule="nonzero"/></g><path fill="#040f16" d="M 192.230469 70.691406 L 182.769531 70.691406 C 182.007812 70.691406 181.378906 70.066406 181.378906 69.304688 L 181.378906 40.230469 C 181.378906 39.46875 182.007812 38.839844 182.769531 38.839844 L 192.230469 38.839844 C 192.992188 38.839844 193.621094 39.46875 193.621094 40.230469 L 193.621094 69.304688 C 193.621094 70.066406 192.992188 70.691406 192.230469 70.691406 " fill-opacity="1" fill-rule="nonzero"/><path fill="#040f16" d="M 192.230469 336.160156 L 182.769531 336.160156 C 182.007812 336.160156 181.378906 335.53125 181.378906 334.769531 L 181.378906 305.695312 C 181.378906 304.933594 182.007812 304.308594 182.769531 304.308594 L 192.230469 304.308594 C 192.992188 304.308594 193.621094 304.933594 193.621094 305.695312 L 193.621094 334.769531 C 193.621094 335.53125 192.992188 336.160156 192.230469 336.160156 " fill-opacity="1" fill-rule="nonzero"/><path fill="#040f16" d="M 273.4375 108.25 L 266.75 101.5625 C 266.210938 101.019531 266.210938 100.136719 266.75 99.597656 L 287.304688 79.042969 C 287.847656 78.5 288.730469 78.5 289.277344 79.042969 L 295.957031 85.722656 C 296.5 86.269531 296.5 87.152344 295.957031 87.695312 L 275.402344 108.25 C 274.863281 108.789062 273.980469 108.789062 273.4375 108.25 " fill-opacity="1" fill-rule="nonzero"/><path fill="#040f16" d="M 85.722656 295.957031 L 79.035156 289.277344 C 78.5 288.730469 78.5 287.847656 79.035156 287.304688 L 99.589844 266.75 C 100.136719 266.210938 101.019531 266.210938 101.5625 266.75 L 108.25 273.4375 C 108.789062 273.980469 108.789062 274.863281 108.25 275.402344 L 87.695312 295.957031 C 87.152344 296.5 86.269531 296.5 85.722656 295.957031 " fill-opacity="1" fill-rule="nonzero"/><path fill="#040f16" d="M 304.308594 192.230469 L 304.308594 182.769531 C 304.308594 182.007812 304.933594 181.378906 305.695312 181.378906 L 334.769531 181.378906 C 335.53125 181.378906 336.160156 182.007812 336.160156 182.769531 L 336.160156 192.230469 C 336.160156 192.992188 335.53125 193.621094 334.769531 193.621094 L 305.695312 193.621094 C 304.933594 193.621094 304.308594 192.992188 304.308594 192.230469 " fill-opacity="1" fill-rule="nonzero"/><path fill="#040f16" d="M 38.839844 192.230469 L 38.839844 182.769531 C 38.839844 182.007812 39.46875 181.378906 40.230469 181.378906 L 69.304688 181.378906 C 70.066406 181.378906 70.691406 182.007812 70.691406 182.769531 L 70.691406 192.230469 C 70.691406 192.992188 70.066406 193.621094 69.304688 193.621094 L 40.230469 193.621094 C 39.46875 193.621094 38.839844 192.992188 38.839844 192.230469 " fill-opacity="1" fill-rule="nonzero"/><path fill="#040f16" d="M 266.75 273.4375 L 273.4375 266.75 C 273.980469 266.210938 274.863281 266.210938 275.402344 266.75 L 295.957031 287.304688 C 296.5 287.847656 296.5 288.730469 295.957031 289.277344 L 289.277344 295.957031 C 288.730469 296.5 287.847656 296.5 287.304688 295.957031 L 266.75 275.402344 C 266.210938 274.863281 266.210938 273.980469 266.75 273.4375 " fill-opacity="1" fill-rule="nonzero"/><path fill="#040f16" d="M 79.035156 85.722656 L 85.722656 79.042969 C 86.269531 78.5 87.152344 78.5 87.695312 79.042969 L 108.25 99.597656 C 108.789062 100.136719 108.789062 101.019531 108.25 101.5625 L 101.5625 108.25 C 101.019531 108.789062 100.136719 108.789062 99.589844 108.25 L 79.035156 87.695312 C 78.5 87.152344 78.5 86.269531 79.035156 85.722656 " fill-opacity="1" fill-rule="nonzero"/><path fill="#040f16" d="M 254.195312 238.53125 L 203.324219 187.660156 C 203.324219 187.605469 203.332031 187.554688 203.332031 187.5 C 203.332031 183.964844 202.167969 180.699219 200.210938 178.0625 L 200.210938 106.355469 C 200.210938 99.363281 194.488281 93.644531 187.5 93.644531 C 180.511719 93.644531 174.789062 99.363281 174.789062 106.355469 L 174.789062 178.0625 C 172.832031 180.699219 171.667969 183.964844 171.667969 187.5 C 171.667969 194.347656 176.019531 200.179688 182.113281 202.386719 L 236.226562 256.5 C 241.167969 261.445312 249.253906 261.445312 254.195312 256.5 C 259.140625 251.558594 259.140625 243.472656 254.195312 238.53125 " fill-opacity="1" fill-rule="nonzero"/></svg>